<svg height="512pt" viewBox="0 -46 512.001 512" width="512pt" xmlns="http://www.w3.org/2000/svg"><g fill-rule="evenodd"><path d="m416 142.269531c11 0 20-9 20-20 0-62.003906-80.589844-112.269531-180-112.269531s-180 50.265625-180 112.269531c0 11 9 20 20 20zm0 0" fill="#ffd89e"/><path d="m416 142.269531h-360c-11 0-20 9-20 20s9 20 20 20h40c25.769531 0 27.5625 15.539063 53.332031 15.539063 25.773438 0 27.5625-15.539063 53.332031-15.539063 25.773438 0 27.5625 15.539063 53.335938 15.539063 25.769531 0 27.5625-15.539063 53.332031-15.539063s27.5625 15.539063 53.332031 15.539063c25.773438 0 27.5625-15.539063 53.335938-15.539063h40c11 0 20-9 20-20s-9-20-20-20zm0 0" fill="#ffc059"/><path d="m309.332031 182.269531c-25.769531 0-27.5625 15.539063-53.332031 15.539063s-27.5625-15.539063-53.332031-15.539063c-25.773438 0-27.5625 15.539063-53.335938 15.539063-25.769531 0-27.558593-15.539063-53.332031-15.539063-11 0-20 9-20 20v17.730469c0 11 9 19.996094 20 19.996094h320c11 0 20-8.996094 20-19.996094v-17.730469c0-11-9-20-20-20-25.769531 0-27.5625 15.539063-53.332031 15.539063-25.773438 0-27.5625-15.539063-53.335938-15.539063zm0 0" fill="#f5828c"/><path d="m416 239.996094h-360c-11 0-20 9-20 20.003906 0 11 9 20 20 20h400c11 0 20-9 20-20s-9-20-20-20h-40zm0 0" fill="#78d0a9"/><path d="m436 280h-360v40c0 22 18 40 40 40h280c22 0 40-18 40-40zm0 0" fill="#ffd89e"/><path d="m396 360h-361c-13.75 0-25 11.25-25 25s11.25 25 25 25h442c13.75 0 25-11.25 25-25s-11.25-25-25-25zm0 0" fill="#dca98a"/></g><path d="m161.003906 152.269531c5.523438 0 10-4.476562 10-10 0-5.523437-4.476562-10-10-10h-.007812c-5.523438 0-9.996094 4.476563-9.996094 10 0 5.523438 4.480469 10 10.003906 10zm0 0"/><path d="m477 350h-41.027344c6.292969-8.363281 10.027344-18.753906 10.027344-30v-30h10c16.542969 0 30-13.460938 30-30.003906 0-16.539063-13.457031-29.996094-30-29.996094h-11.722656c1.113281-3.132812 1.722656-6.496094 1.722656-10v-17.730469c0-3.503906-.609375-6.871093-1.722656-10h11.722656c16.542969 0 30-13.457031 30-30s-13.457031-30-30-30h-11.722656c1.113281-3.128906 1.722656-6.492187 1.722656-10 0-33.566406-20.394531-64.773437-57.429688-87.871093-35.5625-22.183594-82.644531-34.398438-132.570312-34.398438s-97.007812 12.214844-132.570312 34.398438c-37.035157 23.097656-57.429688 54.304687-57.429688 87.871093 0 3.507813.609375 6.871094 1.71875 10h-11.71875c-16.542969 0-30 13.457031-30 30s13.457031 30 30 30h11.722656c-1.113281 3.128907-1.722656 6.496094-1.722656 10v17.730469c0 3.503906.609375 6.867188 1.722656 10h-11.722656c-16.542969 0-30 13.457031-30 30 0 16.539062 13.457031 30 30 30h10v30c0 11.246094 3.734375 21.636719 10.027344 30h-41.027344c-19.300781 0-35 15.699219-35 35 0 19.296875 15.699219 35 35 35h442c19.300781 0 35-15.703125 35-35 0-19.300781-15.699219-35-35-35zm-431-187.730469c0-5.515625 4.488281-10 10-10h60c5.523438 0 10-4.476562 10-10 0-5.523437-4.476562-10-10-10h-20c-5.515625 0-10-4.484375-10-10 0-26.410156 17.050781-51.589843 48.011719-70.902343 32.433593-20.226563 75.753906-31.367188 121.988281-31.367188 46.230469 0 89.554688 11.140625 121.984375 31.367188 30.964844 19.3125 48.015625 44.492187 48.015625 70.902343 0 5.515625-4.488281 10-10 10h-210c-5.523438 0-10 4.476563-10 10 0 5.523438 4.476562 10 10 10h250c5.511719 0 10 4.484375 10 10 0 5.511719-4.488281 10-10 10h-40c-15.511719 0-24.417969 5.023438-31.578125 9.058594-6.421875 3.621094-11.496094 6.480469-21.753906 6.480469-10.261719 0-15.335938-2.859375-21.757813-6.480469-7.15625-4.035156-16.066406-9.058594-31.578125-9.058594-15.507812 0-24.417969 5.023438-31.578125 9.058594-6.421875 3.621094-11.492187 6.480469-21.753906 6.480469s-15.332031-2.859375-21.753906-6.480469c-7.160156-4.035156-16.070313-9.058594-31.578125-9.058594-15.511719 0-24.421875 5.023438-31.578125 9.058594-6.421875 3.621094-11.496094 6.480469-21.757813 6.480469-10.257812 0-15.332031-2.859375-21.753906-6.480469-7.160156-4.035156-16.066406-9.058594-31.578125-9.058594h-40c-5.511719 0-10-4.488281-10-10zm40 57.730469v-17.730469c0-5.511719 4.488281-10 10-10 10.261719 0 15.332031 2.859375 21.753906 6.480469 7.160156 4.035156 16.070313 9.058594 31.578125 9.058594 15.511719 0 24.421875-5.023438 31.578125-9.058594 6.421875-3.621094 11.496094-6.480469 21.757813-6.480469 10.257812 0 15.332031 2.859375 21.753906 6.480469 7.160156 4.035156 16.066406 9.058594 31.578125 9.058594s24.417969-5.023438 31.578125-9.058594c6.421875-3.621094 11.496094-6.480469 21.753906-6.480469 10.261719 0 15.335938 2.859375 21.757813 6.480469 7.15625 4.035156 16.066406 9.058594 31.578125 9.058594 15.507812 0 24.417969-5.023438 31.578125-9.058594 6.421875-3.621094 11.492187-6.480469 21.753906-6.480469 5.511719 0 10 4.488281 10 10v17.730469c0 5.511719-4.488281 10-10 10h-320c-5.511719 0-10-4.488281-10-10zm0 100v-30h240c5.523438 0 10-4.480469 10-10 0-5.523438-4.476562-10-10-10h-270c-5.515625 0-10-4.488281-10-10.003906 0-5.511719 4.484375-9.996094 10-9.996094h400c5.511719 0 10 4.484375 10 10 0 5.511719-4.488281 10-10 10h-40c-5.523438 0-10 4.476562-10 10 0 5.519531 4.476562 10 10 10h10v30c0 16.539062-13.457031 30-30 30h-280c-16.542969 0-30-13.460938-30-30zm391 80h-442c-8.269531 0-15-6.730469-15-15 0-8.273438 6.730469-15 15-15h442c8.273438 0 15 6.726562 15 15 0 8.269531-6.730469 15-15 15zm0 0"/><path d="m331 82.003906c5.523438 0 10-4.484375 10-10.003906 0-5.523438-4.476562-10-10-10s-10 4.476562-10 10v.007812c0 5.519532 4.476562 9.996094 10 9.996094zm0 0"/><path d="m260 102.003906c5.523438 0 10-4.480468 10-10.003906s-4.476562-10-10-10-10 4.476562-10 10v.007812c0 5.519532 4.476562 9.996094 10 9.996094zm0 0"/><path d="m193 81.003906c5.523438 0 10-4.480468 10-10.003906s-4.476562-10-10-10-10 4.476562-10 10v.007812c0 5.519532 4.476562 9.996094 10 9.996094zm0 0"/><path d="m371.003906 270h-.007812c-5.523438 0-9.996094 4.476562-9.996094 10 0 5.519531 4.480469 10 10.003906 10 5.519532 0 10-4.480469 10-10 0-5.523438-4.480468-10-10-10zm0 0"/></svg>