<?xml version="1.0"?>
<svg xmlns="http://www.w3.org/2000/svg" id="Layer_2" height="512px" viewBox="0 0 128 128" width="512px" data-name="Layer 2"><g><path d="m118.167 77.54a8.083 8.083 0 0 1 8.083-8.083v-15.25h-124.5v41.666a5 5 0 0 0 5 5h18.123a10.461 10.461 0 0 1 20.921 0h75.456a5 5 0 0 0 5-5v-10.25a8.083 8.083 0 0 1 -8.083-8.083z" fill="#ffaf10" data-original="#FFAF10" class="" style="fill:#FFE529" data-old_color="#ffaf10"/><path d="m73.424 36.945a8.931 8.931 0 1 1 -16.979-5.545l-12.31-4.022a5 5 0 0 0 -4.391.636l-37.994 26.193h124.5z" fill="#ffd00d" data-original="#FFD00D" class="" style="fill:#FFF39D" data-old_color="#ffd00d"/><g fill="#ff9518"><circle cx="60.417" cy="85.303" r="6.417" data-original="#FF9518" class="active-path" style="fill:#FFCE00" data-old_color="#FF9518"/><circle cx="92.988" cy="74.106" r="8.053" data-original="#FF9518" class="active-path" style="fill:#FFCE00" data-old_color="#FF9518"/><circle cx="18.866" cy="72.128" r="6.075" data-original="#FF9518" class="active-path" style="fill:#FFCE00" data-old_color="#FF9518"/></g><path d="m76.333 52.457h-2.233a1.75 1.75 0 0 0 0 3.5h2.23a1.75 1.75 0 0 0 0-3.5z" data-original="#000000" class="" style="fill:#0E2A47" data-old_color="#000000"/><path d="m126.25 71.207a1.751 1.751 0 0 0 1.75-1.75v-15.25a1.787 1.787 0 0 0 -1.207-1.664l-52.825-17.262a1.75 1.75 0 0 0 -2.207 1.12 7.182 7.182 0 1 1 -13.653-4.461 1.75 1.75 0 0 0 -1.12-2.207l-12.309-4.023a6.789 6.789 0 0 0 -5.928.859l-37.994 26.197a1.8 1.8 0 0 0 -.757 1.459v41.649a6.758 6.758 0 0 0 6.75 6.75h18.123a1.751 1.751 0 0 0 1.75-1.75 8.71 8.71 0 1 1 17.42 0 1.751 1.751 0 0 0 1.75 1.75h75.457a6.758 6.758 0 0 0 6.75-6.75v-10.25a1.75 1.75 0 0 0 -1.75-1.75 6.334 6.334 0 0 1 0-12.667zm-1.75 16.011v8.656a3.254 3.254 0 0 1 -3.25 3.25h-73.832a12.211 12.211 0 0 0 -24.17 0h-16.498a3.254 3.254 0 0 1 -3.25-3.25v-39.917h62a1.75 1.75 0 0 0 0-3.5h-58.129l33.367-23.006a3.263 3.263 0 0 1 2.854-.413l10.781 3.523a10.683 10.683 0 0 0 20.036 6.546l40.851 13.35h-30.324a1.75 1.75 0 0 0 0 3.5h39.564v11.9a9.835 9.835 0 0 0 0 19.356z" data-original="#000000" class="" style="fill:#0E2A47" data-old_color="#000000"/><path d="m66.833 83.553a1.751 1.751 0 0 0 -1.75 1.75 4.667 4.667 0 1 1 -4.666-4.666 1.75 1.75 0 0 0 0-3.5 8.167 8.167 0 1 0 8.166 8.163 1.75 1.75 0 0 0 -1.75-1.747z" data-original="#000000" class="" style="fill:#0E2A47" data-old_color="#000000"/><path d="m92.988 64.3a9.8 9.8 0 1 0 9.8 9.8 9.814 9.814 0 0 0 -9.8-9.8zm0 16.106a6.3 6.3 0 1 1 6.3-6.3 6.31 6.31 0 0 1 -6.3 6.303z" data-original="#000000" class="" style="fill:#0E2A47" data-old_color="#000000"/><path d="m18.866 64.3a7.825 7.825 0 1 0 7.824 7.825 7.834 7.834 0 0 0 -7.824-7.825zm0 12.15a4.325 4.325 0 1 1 4.324-4.325 4.33 4.33 0 0 1 -4.324 4.328z" data-original="#000000" class="" style="fill:#0E2A47" data-old_color="#000000"/><path d="m41.327 36.915a5.722 5.722 0 1 0 5.722 5.722 5.729 5.729 0 0 0 -5.722-5.722zm0 7.944a2.222 2.222 0 1 1 2.222-2.222 2.225 2.225 0 0 1 -2.222 2.222z" data-original="#000000" class="" style="fill:#0E2A47" data-old_color="#000000"/></g> </svg>
