<?xml version="1.0"?>
<svg xmlns="http://www.w3.org/2000/svg" id="Layer_1" enable-background="new 0 0 512 512" height="512px" viewBox="0 0 512 512" width="512px" class="hovered-paths"><g><g><g><path d="m496.851 23.369-8.516-8.516c-10.198-10.198-26.733-10.198-36.931 0l-59.946 59.946c-40.197-30.643-90.383-48.852-144.829-48.852-132.068 0-239.129 107.062-239.129 239.129s107.061 239.128 239.128 239.128 239.129-107.061 239.129-239.128c0-54.446-18.209-104.633-48.852-144.83l59.946-59.946c10.199-10.198 10.199-26.732 0-36.931z" fill="#f9f2d7" data-original="#F9F2D7"/><g><path d="m496.851 23.369-8.516-8.516c-10.198-10.198-26.733-10.198-36.931 0l-1.535 1.534 6.982 6.982c10.198 10.198 10.198 26.733 0 36.931l-59.946 59.946c30.643 40.197 48.852 90.383 48.852 144.83 0 125.33-96.422 228.126-219.129 238.289 6.596.546 13.263.839 20 .839 132.067 0 239.129-107.061 239.129-239.128 0-54.446-18.209-104.633-48.852-144.83l59.946-59.946c10.199-10.198 10.199-26.732 0-36.931z" fill="#f2eacb" data-original="#F2EACB"/></g><circle cx="246.629" cy="265.076" fill="#f0aa7d" r="204.426" data-original="#F0AA7D" class="" style="fill:#84492B" data-old_color="#f0aa7d"/><g><path d="m246.521 384.71s-86.27-36.8-111.878-110.423c-16.397-47.141-.678-89.159 38.943-96.845 49.277-9.559 72.935 55.468 72.935 55.468s23.714-65.312 72.935-55.468c40.992 8.199 55.34 49.703 38.943 96.845-25.609 73.623-111.878 110.423-111.878 110.423z" fill="#e2894c" data-original="#E2894C" class="hovered-path active-path" style="fill:#FFE8DC" data-old_color="#e2894c"/></g></g><g fill="#060606"><path d="m195.712 363.127c25.192 18.717 46.952 28.091 47.866 28.481 1.962.802 3.924.802 5.886 0 1.004-.428 24.907-10.73 51.614-31.317 7.68-5.921-1.477-17.8-9.158-11.88-19.851 15.302-38.387 24.725-45.392 28.047-15.025-7.162-83.217-42.584-104.801-104.636-11.307-32.509-7.519-79.103 33.288-87.018 31.191-6.053 54.877 24.71 64.459 50.669 2.32 6.377 11.762 6.428 14.098-.004 9.477-25.999 33.24-56.906 64.415-50.673 41.227 8.245 44.886 53.799 33.329 87.026-5.836 16.779-15.572 33.02-28.94 48.271-6.391 7.293 4.888 17.178 11.281 9.887 14.646-16.71 25.354-34.619 31.827-53.23 14.62-42.03 5.904-96.571-44.556-106.663-33.303-6.658-59.584 17.937-74.416 45.155-14.876-27.214-41.09-51.618-74.354-45.163-49.9 9.68-58.994 65.285-44.598 106.671 10.965 31.53 34.532 61.398 68.152 86.377z" data-original="#060606" class="" style="fill:#060606"/><path d="m34.703 265.075c0 116.856 95.07 211.926 211.926 211.926s211.926-95.07 211.926-211.926-95.069-211.925-211.926-211.925-211.926 95.07-211.926 211.925zm211.926-196.925c108.585 0 196.926 88.34 196.926 196.925s-88.341 196.926-196.926 196.926-196.926-88.341-196.926-196.926c0-108.584 88.34-196.925 196.926-196.925z" data-original="#060606" class="" style="fill:#060606"/><path d="m512 41.835c0-30.341-42.271-55.911-65.899-32.285l-55.37 55.371c-42.141-30.427-91.819-46.473-144.102-46.473-37.864 0-74.194 8.355-107.981 24.835-8.716 4.25-2.139 17.735 6.575 13.481 31.722-15.472 65.839-23.316 101.406-23.316 51.167 0 99.676 16.362 140.283 47.316 2.985 2.275 7.193 1.993 9.851-.662l59.946-59.946c18.021-18.023 53.108 16.577 34.84 34.84l-59.946 59.946c-2.654 2.655-2.938 6.864-.661 9.85 30.955 40.606 47.316 89.115 47.316 140.283 0 61.87-24.094 120.037-67.843 163.786-43.748 43.749-101.915 67.842-163.786 67.842-61.87 0-120.037-24.094-163.786-67.842-43.749-43.748-67.843-101.915-67.843-163.785 0-36.983 8.453-72.32 25.125-105.031 15.906-31.208 39.138-58.883 67.185-80.032 7.743-5.838-1.288-17.814-9.031-11.977-29.854 22.511-54.584 51.972-71.518 85.197-17.758 34.841-26.761 72.47-26.761 111.843 0 65.877 25.654 127.811 72.236 174.393s108.516 72.236 174.393 72.236c65.876 0 127.811-25.654 174.392-72.236 46.582-46.582 72.236-108.516 72.236-174.393 0-52.284-16.046-101.962-46.473-144.102l55.37-55.371c6.35-6.348 9.846-14.789 9.846-23.768z" data-original="#060606" class="" style="fill:#060606"/></g></g></g> </svg>
