<?xml version="1.0" encoding="iso-8859-1"?>
<!-- Generator: Adobe Illustrator 19.0.0, SVG Export Plug-In . SVG Version: 6.00 Build 0)  -->
<svg version="1.1" id="Layer_1" xmlns="http://www.w3.org/2000/svg" xmlns:xlink="http://www.w3.org/1999/xlink" x="0px" y="0px"
	 viewBox="0 0 512 512" style="enable-background:new 0 0 512 512;" xml:space="preserve">
<path style="fill:#DBD9D7;" d="M381.65,205.731h-41.883c-9.252,0-16.753,7.501-16.753,16.753s7.501,16.753,16.753,16.753h41.883
	c13.857,0,25.13,11.273,25.13,25.13v134.025c0,13.857-11.273,25.13-25.13,25.13h-41.883c-9.252,0-16.753,7.501-16.753,16.753
	c0,9.252,7.501,16.753,16.753,16.753h41.883c32.332,0,58.636-26.305,58.636-58.636V264.367
	C440.286,232.036,413.983,205.731,381.65,205.731z"/>
<path style="fill:#EDECEB;" d="M306.261,172.225h-8.377v-58.636c0-9.253-7.5-16.753-16.753-16.753H130.352
	c-9.253,0-16.753,7.5-16.753,16.753v58.636h-8.377c-18.505,0-33.506,15.001-33.506,33.506v264.91
	c0,18.505,15.001,33.506,33.506,33.506h201.038c18.505,0,33.506-15.001,33.506-33.506v-264.91
	C339.767,187.226,324.766,172.225,306.261,172.225z"/>
<path style="fill:#DBD9D7;" d="M105.223,470.641v-264.91c0-18.505,15.001-33.506,33.506-33.506h8.377v-58.636
	c0-9.253,7.5-16.753,16.753-16.753h-33.506c-9.253,0-16.753,7.5-16.753,16.753v58.636h-8.377c-18.505,0-33.506,15.001-33.506,33.506
	v264.91c0,18.505,15.001,33.506,33.506,33.506h33.506C120.224,504.147,105.223,489.146,105.223,470.641z"/>
<circle style="fill:#FFFFFF;" cx="281.13" cy="214.106" r="25.13"/>
<path style="fill:#FFB266;" d="M289.508,473.782H121.976c-9.253,0-16.753-7.5-16.753-16.753V247.614c0,0,33.506-33.506,100.519,0
	c78.222,39.11,100.519,0,100.519,0v209.415C306.261,466.282,298.761,473.782,289.508,473.782z"/>
<path style="fill:#FF9940;" d="M138.729,448.652c-4.626,0-8.377-3.751-8.377-8.377V235.049c-16.753,4.188-25.13,12.565-25.13,12.565
	v209.415c0,9.253,7.5,16.753,16.753,16.753h167.532c9.253,0,16.753-7.5,16.753-16.753v-8.377H138.729z"/>
<g>
	<circle style="fill:#FFEBB0;" cx="264.377" cy="306.248" r="16.753"/>
	<circle style="fill:#FFEBB0;" cx="147.105" cy="323.002" r="16.753"/>
	<circle style="fill:#FFEBB0;" cx="239.247" cy="423.521" r="16.753"/>
</g>
<path style="fill:#64DDE3;" d="M367.945,34.387L267.426,8.21c-6.788-1.696-13.841,2.691-15.326,9.52L168.334,404.1
	c-1.088,5.006,1.062,10.311,5.333,13.144c4.496,2.983,10.567,2.705,14.779-0.651c2.251-1.793,3.832-4.343,4.444-7.155l81.013-372.66
	l87.946,21.986c6.732,1.682,13.554-2.41,15.237-9.142C378.77,42.892,374.676,36.07,367.945,34.387z"/>
<path d="M381.65,197.878h-34.787c-3.68-19.062-20.482-33.506-40.602-33.506h-0.524v-17.729l1.176-0.098
	c4.321-0.36,7.534-4.156,7.174-8.478c-0.356-4.278-4.078-7.457-8.349-7.178v-9.375l1.176-0.098c4.321-0.36,7.534-4.156,7.174-8.478
	c-0.36-4.321-4.153-7.531-8.478-7.173l-1.122,0.093c-3.25-9.79-12.487-16.874-23.355-16.874h-10.54l9.266-42.62l80.089,20.022
	c10.928,2.729,22.029-3.935,24.759-14.856c2.728-10.909-3.918-22.004-14.817-24.751L269.329,0.591
	c-5.283-1.32-11.005-0.404-15.7,2.511c-4.693,2.916-8.048,7.639-9.205,12.965l-15.809,72.916h-98.265
	c-13.568,0-24.606,11.038-24.606,24.606v8.829l-1.176,0.098c-4.321,0.36-7.534,4.156-7.174,8.478c0.341,4.1,3.775,7.201,7.817,7.201
	c0.176,0,0.354-0.01,0.532-0.022v9.374l-1.176,0.098c-4.321,0.36-7.534,4.156-7.174,8.478c0.341,4.1,3.775,7.201,7.817,7.201
	c0.176,0,0.354-0.01,0.532-0.022v1.069h-0.524c-22.805,0-41.359,18.554-41.359,41.359v264.91c0,22.805,18.554,41.359,41.359,41.359
	H306.26c22.805,0,41.359-18.554,41.359-41.359v-5.759h34.03c36.662,0,66.489-29.827,66.489-66.489V264.367
	C448.139,227.705,418.312,197.878,381.65,197.878z M290.031,132.191l-29.365,2.447l2.074-9.542l27.291-2.274V132.191z
	 M208.154,257.495c3.039,1.421,5.998,2.729,8.878,3.927l-31.815,146.35c-0.688,3.158-4.503,4.723-7.209,2.93
	c-1.581-1.048-2.403-3.076-1.999-4.936L208.154,257.495z M211.572,241.729l19.262-88.844l9.973-0.831l-20.381,93.756
	C217.57,244.57,214.621,243.213,211.572,241.729z M234.313,136.834l2.069-9.542l9.989-0.832l-2.074,9.542L234.313,136.834z
	 M239.862,111.242l1.421-6.553h9.822l-1.244,5.72L239.862,111.242z M281.131,104.689c2.444,0,4.661,0.992,6.27,2.592l-21.172,1.764
	l0.947-4.356C267.176,104.689,281.131,104.689,281.131,104.689z M259.774,19.398c0.53-2.44,3.223-4.199,5.672-3.588l100.519,26.177
	c0.024,0.006,0.049,0.013,0.074,0.019c2.52,0.63,4.058,3.194,3.428,5.714c-0.63,2.52-3.194,4.054-5.715,3.428l-87.945-21.986
	c-4.241-1.062-8.652,1.685-9.578,5.951l-11.712,53.872h-9.831L259.774,19.398z M121.452,113.589c0-4.908,3.992-8.9,8.9-8.9h94.86
	l-1.716,7.917l-102.043,8.503v-7.52H121.452z M121.452,136.871l98.563-8.213l-2.069,9.542l-96.494,8.042
	C121.452,146.241,121.452,136.871,121.452,136.871z M331.914,470.641c0,14.145-11.508,25.653-25.653,25.653H105.223
	c-14.145,0-25.653-11.508-25.653-25.653v-264.91c0-14.145,11.508-25.653,25.653-25.653h8.377c4.337,0,7.853-3.516,7.853-7.853
	v-10.226l93.015-7.751l-17.506,80.747c-63.194-25.932-95.85,5.625-97.291,7.066c-1.473,1.472-2.3,3.47-2.3,5.553v108.896
	c0,4.337,3.516,7.853,7.853,7.853s7.853-3.516,7.853-7.853V251.275c7.694-5.726,34.094-20.68,80.5-0.665L160.66,402.432
	c-1.774,8.159,1.708,16.742,8.665,21.356c3.382,2.244,7.321,3.354,11.256,3.354c9.517-0.001,17.957-6.719,19.982-16.035
	l31.35-144.21c33.273,10.563,54.228,5.346,66.493-1.767v191.899c0,4.908-3.992,8.9-8.9,8.9H121.975c-4.908,0-8.9-3.992-8.9-8.9
	v-67.013c0-4.337-3.516-7.853-7.853-7.853c-4.337,0-7.853,3.516-7.853,7.853v67.013c0,13.568,11.038,24.606,24.606,24.606h167.532
	c13.568,0,24.606-11.038,24.606-24.606V247.614c0-3.501-2.345-6.761-5.754-7.686c-3.451-0.936-7.192,0.585-8.898,3.752
	c-1.058,1.68-16.067,23.717-64.202,7.826l21.917-100.817l32.855-2.738v24.273c0,4.337,3.516,7.853,7.853,7.853h8.377
	c14.145,0,25.653,11.508,25.653,25.653v58.636c0,4.337,3.516,7.853,7.853,7.853s7.853-3.516,7.853-7.853V247.09h34.03
	c9.526,0,17.277,7.75,17.277,17.277v134.025c0,9.526-7.75,17.277-17.277,17.277h-34.03V297.873c0-4.337-3.516-7.853-7.853-7.853
	s-7.853,3.516-7.853,7.853V470.641z M432.433,398.393c0,28.002-22.781,50.783-50.783,50.783h-34.03v-17.8h34.03
	c18.187,0,32.983-14.796,32.983-32.983V264.367c0-18.187-14.796-32.983-32.983-32.983h-34.03v-17.8h34.03
	c28.002,0,50.783,22.781,50.783,50.783V398.393z"/>
<path d="M264.378,330.857c13.568,0,24.606-11.038,24.606-24.606s-11.038-24.606-24.606-24.606
	c-13.568,0-24.606,11.038-24.606,24.606S250.81,330.857,264.378,330.857z M264.378,297.35c4.908,0,8.9,3.992,8.9,8.9
	s-3.992,8.9-8.9,8.9c-4.908,0-8.9-3.992-8.9-8.9S259.47,297.35,264.378,297.35z"/>
<path d="M147.106,347.61c13.568,0,24.606-11.038,24.606-24.606s-11.038-24.606-24.606-24.606c-13.568,0-24.606,11.038-24.606,24.606
	S133.538,347.61,147.106,347.61z M147.106,314.103c4.908,0,8.9,3.992,8.9,8.9s-3.992,8.9-8.9,8.9c-4.908,0-8.9-3.992-8.9-8.9
	S142.198,314.103,147.106,314.103z"/>
<path d="M239.248,448.129c13.568,0,24.606-11.038,24.606-24.606s-11.038-24.606-24.606-24.606
	c-13.568,0-24.606,11.038-24.606,24.606S225.68,448.129,239.248,448.129z M239.248,414.623c4.908,0,8.9,3.992,8.9,8.9
	s-3.992,8.9-8.9,8.9c-4.908,0-8.9-3.992-8.9-8.9S234.34,414.623,239.248,414.623z"/>
<g>
</g>
<g>
</g>
<g>
</g>
<g>
</g>
<g>
</g>
<g>
</g>
<g>
</g>
<g>
</g>
<g>
</g>
<g>
</g>
<g>
</g>
<g>
</g>
<g>
</g>
<g>
</g>
<g>
</g>
</svg>
