<?xml version="1.0"?>
<svg xmlns="http://www.w3.org/2000/svg" id="filled_outline" height="512px" viewBox="0 0 512 512" width="512px" data-name="filled outline"><g><path d="m344 400h-320l152-288h168z" fill="#deae7e" data-original="#DEAE7E"/><path d="m488 400-144-288-152 288z" fill="#f5c99d" data-original="#F5C99D"/><path d="m72 400 152-288h72l-152 288z" fill="#cc442f" data-original="#CC442F"/><path d="m120 400v-18.8133a60.72657 60.72657 0 0 1 22.791-47.41949 45.85329 45.85329 0 0 0 17.209-35.80545v-.00005a45.85331 45.85331 0 0 1 22.262-39.3189 36.53518 36.53518 0 0 0 17.738-31.32867v-.00005a48.24187 48.24187 0 0 1 23.42164-41.36709 34.14659 34.14659 0 0 0 16.57836-29.28048 68.25673 68.25673 0 0 1 11.4637-37.862l4.5363-6.80452h40l-152 288z" fill="#f6bb00" data-original="#F6BB00"/><path d="m17.14893 404.13086a7.99991 7.99991 0 0 0 6.85107 3.86914h464a8 8 0 0 0 7.15527-11.57812l-144-288a7.99778 7.99778 0 0 0 -7.06738-4.4209c-.0296-.00098-.05829-.00098-.08789-.00098h-168a7.99979 7.99979 0 0 0 -7.0752 4.26562l-152 288a8.00117 8.00117 0 0 0 .22413 7.86524zm140.11938-12.13086 143.5556-272h29.90778l-143.5556 272zm-18.09222 0h-11.17609v-10.81348a52.46388 52.46388 0 0 1 19.78857-41.17187 53.59234 53.59234 0 0 0 20.21143-42.05274 38.04472 38.04472 0 0 1 18.37793-32.459 44.75916 44.75916 0 0 0 21.62207-38.18846 40.442 40.442 0 0 1 19.5376-34.50683 42.3611 42.3611 0 0 0 20.4624-36.14162 60.0608 60.0608 0 0 1 10.12061-33.42383l2.16131-3.24217h22.44977zm92.82391-235.333a26.27672 26.27672 0 0 1 -12.69385 22.41992 56.5247 56.5247 0 0 0 -27.30615 48.22753 28.677 28.677 0 0 1 -13.854 24.46778 54.12683 54.12683 0 0 0 -26.146 46.17968 37.66923 37.66923 0 0 1 -14.20654 29.5586 68.38851 68.38851 0 0 0 -25.79346 53.66601v10.81348h-26.73169l143.5556-272h12.58014a75.96942 75.96942 0 0 0 -9.40405 36.667zm243.05566 235.333h-269.78759l138.53955-262.49609zm-294.23193-272h29.908l-143.55564 272h-29.908z" data-original="#000000" class="active-path" style="fill:#000000"/><path d="m284.686 288h22.627v16h-22.627z" transform="matrix(.707 -.707 .707 .707 -122.607 295.982)" data-original="#000000" class="active-path" style="fill:#000000"/><path d="m348.686 328h22.627v16h-22.627z" transform="matrix(.707 -.707 .707 .707 -132.146 352.971)" data-original="#000000" class="active-path" style="fill:#000000"/><path d="m336 204.686h16v22.627h-16z" transform="matrix(.707 -.707 .707 .707 -51.98 306.51)" data-original="#000000" class="active-path" style="fill:#000000"/><path d="m280 348.686h16v22.627h-16z" transform="matrix(.707 -.707 .707 .707 -170.205 309.088)" data-original="#000000" class="active-path" style="fill:#000000"/><path d="m404.686 360h22.627v16h-22.627z" transform="matrix(.707 -.707 .707 .707 -138.373 401.917)" data-original="#000000" class="active-path" style="fill:#000000"/><path d="m368 268.686h16v22.627h-16z" transform="matrix(.707 -.707 .707 .707 -87.862 347.882)" data-original="#000000" class="active-path" style="fill:#000000"/></g> </svg>
