<svg height="511pt" viewBox="0 -22 511.99972 511" width="511pt" xmlns="http://www.w3.org/2000/svg"><g fill="#fdd79b"><path d="m100.308594 10.15625c-47.398438 0-85.820313 38.421875-85.820313 85.820312 0 47.40625 38.421875 85.832032 85.820313 85.832032 47.40625 0 85.828125-38.421875 85.828125-85.832032 0-47.398437-38.421875-85.820312-85.828125-85.820312zm0 138.601562c-29.140625 0-52.773438-23.632812-52.773438-52.78125 0-29.140624 23.632813-52.773437 52.773438-52.773437 29.148437 0 52.78125 23.632813 52.78125 52.773437 0 29.148438-23.632813 52.78125-52.78125 52.78125zm0 0"/><path d="m411.683594 10.15625c-47.398438 0-85.824219 38.421875-85.824219 85.820312 0 47.40625 38.425781 85.832032 85.824219 85.832032 47.40625 0 85.828125-38.421875 85.828125-85.832032 0-47.398437-38.421875-85.820312-85.828125-85.820312zm0 138.601562c-29.140625 0-52.773438-23.632812-52.773438-52.78125 0-29.140624 23.632813-52.773437 52.773438-52.773437 29.148437 0 52.78125 23.632813 52.78125 52.773437 0 29.148438-23.632813 52.78125-52.78125 52.78125zm0 0"/><path d="m255.996094 8.003906c-47.398438 0-85.820313 38.421875-85.820313 85.820313 0 47.410156 38.421875 85.832031 85.820313 85.832031 47.40625 0 85.828125-38.421875 85.828125-85.832031.003906-47.398438-38.421875-85.820313-85.828125-85.820313zm0 138.601563c-29.140625 0-52.773438-23.632813-52.773438-52.78125 0-29.136719 23.632813-52.769531 52.773438-52.769531 29.148437 0 52.78125 23.632812 52.78125 52.769531 0 29.148437-23.632813 52.78125-52.78125 52.78125zm0 0"/></g><path d="m384.746094 117.332031-12.535156 28.304688c-7.082032 15.996093-22.933594 26.3125-40.429688 26.3125h-151.5625c-17.496094 0-33.34375-10.316407-40.429688-26.3125l-12.535156-28.304688c-6.035156-13.632812-19.546875-22.425781-34.457031-22.425781h-61.453125c-15.019531 0-26.292969 13.722656-23.378906 28.457031l49.222656 292.558594c5.808594 29.367187 34.300781 48.457031 63.679688 42.695313 26.667968-5.234376 62.625-11.019532 105.976562-15.007813 19.390625-1.785156 38.921875-1.785156 58.316406 0 43.351563 3.988281 79.304688 9.777344 105.972656 15.007813 29.378907 5.761718 57.871094-13.324219 63.683594-42.695313l49.222656-292.558594c2.914063-14.734375-8.363281-28.457031-23.378906-28.457031h-61.453125c-14.914062 0-28.421875 8.792969-34.460937 22.425781zm0 0" fill="#ea4444"/><path d="m504.039062 123.363281-49.21875 292.5625c-5.8125 29.363281-34.3125 48.457031-63.683593 42.6875-26.671875-5.226562-62.625-11.015625-105.976563-15-19.394531-1.789062-38.921875-1.789062-58.320312 0-43.351563 3.984375-79.304688 9.773438-105.976563 15-29.371093 5.769531-57.871093-13.324219-63.679687-42.6875l-2.839844-25.980469c5.480469 27.6875 32.332031 45.6875 60.027344 40.25 25.148437-4.925781 59.042968-10.386718 99.914062-14.148437 18.273438-1.675781 36.6875-1.675781 54.972656 0 40.871094 3.761719 74.765626 9.222656 99.902344 14.148437 27.695313 5.4375 54.558594-12.5625 60.039063-40.25l46.398437-275.804687c1.4375-7.234375-.761718-14.21875-5.207031-19.234375h10.265625c15.023438 0 26.292969 13.726562 23.382812 28.457031zm0 0" fill="#d93131"/><path d="m484.597656 238.867188-15.847656 94.210937h-26.527344l15.851563-94.210937zm0 0" fill="#d93131"/><path d="m484.597656 238.867188-15.847656 94.210937h-425.5l-15.847656-94.210937zm0 0" fill="#fef1da"/><path d="m484.601562 238.863281-15.855468 94.214844h-425.492188l-3.863281-22.980469h381.515625c12.402344 0 22.992188-8.957031 25.046875-21.1875l8.417969-50.046875zm0 0" fill="#fde6bf"/><path d="m339.726562 294.800781c0 46.238281-37.484374 83.722657-83.726562 83.722657-46.238281 0-83.722656-37.484376-83.722656-83.722657 0-46.242187 37.484375-83.726562 83.722656-83.726562 46.242188 0 83.726562 37.484375 83.726562 83.726562zm0 0" fill="#ffc265"/><path d="m255.996094 154.109375c33.242187 0 60.285156-27.042969 60.285156-60.285156 0-33.234375-27.042969-60.273438-60.285156-60.273438-33.238282 0-60.277344 27.039063-60.277344 60.273438 0 33.242187 27.039062 60.285156 60.277344 60.285156zm0-105.550781c24.964844 0 45.277344 20.304687 45.277344 45.265625 0 24.964843-20.3125 45.277343-45.277344 45.277343-24.960938 0-45.269532-20.308593-45.269532-45.277343 0-24.960938 20.308594-45.265625 45.269532-45.265625zm0 0"/><path d="m504.964844 98.964844c.03125-.992188.050781-1.988282.050781-2.988282 0-51.460937-41.867187-93.324218-93.332031-93.324218-32.015625 0-60.300782 16.210937-77.117188 40.847656-16.617187-25.84375-45.628906-43-78.570312-43s-61.949219 17.15625-78.5625 43c-16.820313-24.636719-45.109375-40.847656-77.125-40.847656-51.460938 0-93.328125 41.863281-93.328125 93.324218 0 1 .023437 1.996094.058593 2.988282-5.882812 7.226562-8.234374 16.589844-6.460937 25.738281l49.207031 292.464844c.011719.070312.023438.140625.039063.210937 5.804687 29.355469 31.699219 49.765625 60.582031 49.765625 3.925781 0 7.910156-.378906 11.90625-1.164062 33.261719-6.523438 68.664062-11.535157 105.214844-14.898438 18.890625-1.738281 38.050781-1.738281 56.945312 0 36.550782 3.359375 71.949219 8.375 105.214844 14.898438 3.996094.785156 7.980469 1.164062 11.90625 1.164062 28.878906-.003906 54.777344-20.414062 60.582031-49.765625.011719-.070312.027344-.140625.039063-.210937l49.207031-292.464844c1.773437-9.144531-.578125-18.511719-6.457031-25.738281zm-162.332032-39.851563c13.207032-24.640625 39.191407-41.453125 69.050782-41.453125 40.742187 0 74.300781 31.269532 77.976562 71.0625-2.886718-.863281-5.910156-1.320312-9-1.320312h-9.3125c-4.175781-29.1875-29.335937-51.703125-59.664062-51.703125-33.238282 0-60.277344 27.039062-60.277344 60.273437 0 15.925782 6.222656 30.414063 16.34375 41.203125l-2.402344 5.421875c-1.757812 3.972656-4.1875 7.515625-7.097656 10.546875-6.773438-6.335937-12.421875-13.859375-16.613281-22.234375 4.945312-11.371094 7.695312-23.914062 7.695312-37.085937 0-12.261719-2.382812-23.976563-6.699219-34.710938zm113.5 28.289063h-36.925781c-17.867187 0-34.085937 10.554687-41.324219 26.890625l-3.328124 7.523437c-5.121094-7.332031-8.136719-16.238281-8.136719-25.839844 0-24.960937 20.304687-45.269531 45.265625-45.269531 22.03125 0 40.429687 15.820313 44.449218 36.695313zm-110.566406 74.332031c-4.304687 1.75-8.96875 2.710937-13.785156 2.710937h-14.847656c6.152344-5.316406 11.605468-11.417968 16.203125-18.152343 3.589843 5.585937 7.765625 10.753906 12.429687 15.441406zm-89.570312-146.226563c43.1875 0 78.324218 35.132813 78.324218 78.316407 0 31.09375-18.222656 57.984375-44.542968 70.621093h-67.59375c-26.300782-12.640624-44.503906-39.539062-44.503906-70.621093 0-43.183594 35.132812-78.316407 78.316406-78.316407zm-77.128906 130.792969c4.59375 6.726563 10.039062 12.832031 16.1875 18.144531h-14.835938c-4.808594 0-9.464844-.960937-13.765625-2.699218 4.660156-4.691406 8.828125-9.863282 12.414063-15.445313zm-78.558594-128.640625c29.859375 0 55.855468 16.796875 69.066406 41.433594-4.320312 10.742188-6.707031 22.460938-6.707031 34.730469 0 13.183593 2.75 25.734375 7.703125 37.113281-4.195313 8.367188-9.847656 15.878906-16.621094 22.210938-2.910156-3.03125-5.339844-6.574219-7.097656-10.550782l-2.402344-5.421875c10.121094-10.789062 16.34375-25.277343 16.34375-41.199219 0-13.554687-4.394531-26.355468-12.714844-37.027343-2.546875-3.265625-7.261718-3.855469-10.53125-1.304688-3.269531 2.546875-3.851562 7.265625-1.304687 10.535157 6.242187 8.007812 9.542969 17.621093 9.542969 27.796874 0 9.601563-3.019532 18.5-8.140626 25.832032l-3.328124-7.511719c-7.234376-16.335937-23.453126-26.894531-41.320313-26.894531h-36.914063c4.019532-20.871094 22.398438-36.695313 44.425782-36.695313 3.488281 0 6.964844.398438 10.328125 1.183594 4.039062.941406 8.070312-1.570313 9.011719-5.605469.941406-4.035156-1.566407-8.070312-5.605469-9.011718-4.480469-1.042969-9.101563-1.574219-13.734375-1.574219-30.324219 0-55.480469 22.515625-59.65625 51.703125h-9.308594c-3.09375 0-6.121094.457031-9.003906 1.320312 3.671875-39.792968 37.230468-71.0625 77.96875-71.0625zm-50.707032 307.914063-13.324218-79.203125h142.445312c-8.832031 14.042968-13.953125 30.648437-13.953125 48.425781 0 10.796875 1.890625 21.160156 5.347657 30.777344zm397.832032 88.992187c-5.039063 25.183594-29.625 41.636719-54.855469 36.6875-33.761719-6.625-69.671875-11.710937-106.730469-15.121094-19.804687-1.820312-39.890625-1.820312-59.695312 0-37.054688 3.410157-72.964844 8.496094-106.730469 15.121094-25.234375 4.941406-49.816406-11.503906-54.855469-36.6875l-12.445312-73.980468h125c15.820312 27.152343 45.253906 45.441406 78.878906 45.441406s63.058594-18.289063 78.878906-45.441406h125zm-267.652344-119.769531c0-42.027344 34.191406-76.21875 76.21875-76.21875s76.21875 34.191406 76.21875 76.21875-34.191406 76.222656-76.21875 76.222656-76.21875-34.191406-76.21875-76.222656zm316.894531-172.890625c-.015625.070312-.027343.140625-.039062.210938l-18.378907 109.246093h-88.292968c-4.148438 0-7.507813 3.359375-7.507813 7.503907 0 4.144531 3.359375 7.503906 7.507813 7.503906h85.757812l-13.320312 79.207031h-120.519532c3.457032-9.621094 5.347657-19.984375 5.347657-30.777344 0-17.78125-5.121094-34.386719-13.953125-48.429687h21.0625c4.144531 0 7.503906-3.359375 7.503906-7.503906 0-4.144532-3.359375-7.503907-7.503906-7.503907h-32.84375c-16.59375-17.128906-39.820313-27.792969-65.496094-27.792969-25.671875 0-48.898438 10.664063-65.492188 27.792969h-156.765624l-18.378907-109.246093c-.011719-.070313-.023437-.140626-.039062-.210938-.953125-4.8125.289062-9.742188 3.402343-13.53125 3.113282-3.789062 7.710938-5.964844 12.613282-5.964844h61.457031c11.933594 0 22.765625 7.050782 27.597656 17.964844l12.535157 28.300781c8.277343 18.699219 26.84375 30.78125 47.289062 30.78125h151.5625c20.449219 0 39.011719-12.082031 47.292969-30.78125l12.53125-28.300781c4.835937-10.914062 15.667969-17.964844 27.601562-17.964844h61.453125c4.902344 0 9.5 2.175782 12.617188 5.964844 3.109375 3.789062 4.351562 8.71875 3.398437 13.53125zm0 0"/></svg>