<svg height="512" viewBox="0 0 60 61" width="512" xmlns="http://www.w3.org/2000/svg"><g id="019---Veggie-Burger" fill="none"><g id="Icons" transform="translate(0 1)"><path id="Shape" d="m38.15 31.79c-3.09 6.87-1.46 3.21-6.83 15.21h-17.32c-5.5228475 0-10-4.4771525-10-10v-4.13z" fill="#ff9801"/><path id="Shape" d="m49 18c0 .5522847-.4477153 1-1 1h-44c-.55228475 0-1-.4477153-1-1 0-9.9411255 8.0588745-18 18-18h10c9.9411255 0 18 8.0588745 18 18z" fill="#f57c00"/><path id="Shape" d="m46 18c0 .5522847-.4477153 1-1 1h-41c-.55228475 0-1-.4477153-1-1 0-9.9411255 8.0588745-18 18-18h7c9.9411255 0 18 8.0588745 18 18z" fill="#ff9801"/><path id="Shape" d="m50.79 31.26-17.11 4.51c-.6423147-.2368843-1.2184335-.6243927-1.68-1.13-.7593322.8610017-1.8519977 1.3542487-3 1.3542487s-2.2406678-.493247-3-1.3542487c-.7593322.8610017-1.8519977 1.3542487-3 1.3542487s-2.2406678-.493247-3-1.3542487c-.7593322.8610017-1.8519977 1.3542487-3 1.3542487s-2.2406678-.493247-3-1.3542487c-.9391505 1.0626331-2.3707481 1.5485519-3.7627017 1.2771518-1.39195357-.2714001-2.53614236-1.2595402-3.0072983-2.5971518-1.42349427.9565938-3.29840191.8992622-4.66078911-.1425194-1.3623872-1.0417815-1.9090312-2.8361466-1.35888955-4.4605701.55014166-1.6244236 2.07462545-2.7173621 3.78967866-2.7169105h42c1.2837381.0020428 2.4884927.6201025 3.238953 1.6616384s.9554266 2.3799755.551047 3.5983616z" fill="#60a917"/><path id="Rectangle-path" d="m6 19h40v7h-40z" fill="#783e22"/><path id="Rectangle-path" d="m6 19h37v7h-37z" fill="#a0522d"/><path id="Shape" d="m59 44c-.0003171 7.5369898-5.9673652 13.7210359-13.4995378 13.990463-7.5321725.269427-13.9258137-5.4724753-14.4646397-12.9901798-.5388261-7.5177045 4.9705734-14.1127486 12.4641775-14.9202832 3.9513603-.4258112 7.8974912.8478131 10.8543626 3.5032744s4.6458046 6.4424882 4.6456374 10.4167256z" fill="#624421"/><ellipse id="Oval" cx="43.5" cy="44" fill="#825a2c" rx="12.5" ry="13.92"/><path id="Shape" d="m52 48.11c-1.55 2.39-4.55 3.78-6.9 2.26-2.28-1.64-2.25-5-.68-7.47 1.23-1.92 5-3.36 7.18-4.06.2922838-.0858349.6077538-.0337616.8569474.1414526.2491935.1752142.4049329.4544601.4230526.7585474.17 2.1.39 6.39-.88 8.37z" fill="#007900"/><path id="Shape" d="m49 48.11c-.7478361 1.2006858-1.8734911 2.1187981-3.2 2.61-.2490933-.082051-.4849033-.1999559-.7-.35-2.28-1.64-2.25-5-.68-7.47.95-1.48 3.39-2.66 5.39-3.43.0395756.0849881.0632981.1764891.07.27.17 2.1.39 6.39-.88 8.37z" fill="#008a00"/><path id="Shape" d="m44.94 50.37c-2.11 1.38-5.21.42-6.94-2.14s-.7-9.23-.7-9.23 6.6 1.64 8.32 4.21 1.38 5.79-.68 7.16z" fill="#60a917"/><path id="Shape" d="m41.22 50.74c2.85-1.14 3.23-4.81 1.4-7.53-1-1.43-3.43-2.57-5.43-3.31.06-.56.11-.9.11-.9s6.6 1.64 8.32 4.21c2.81 4.18 0 9-4.4 7.53z" fill="#549414"/></g><g id="Layer_2" fill="#000"><path id="Shape" d="m9 15c.54 0 .57-.15 2.71-2.29.3921222-.3921222.3921222-1.0278778 0-1.42s-1.0278778-.3921222-1.42 0l-2 2c-.28845995.2860905-.37516186.7182668-.21937095 1.0934815s.52310588.6188811.92937095.6165185z"/><path id="Shape" d="m23 9c.54 0 .57-.15 2.71-2.29.3921222-.39212217.3921222-1.02787783 0-1.42s-1.0278778-.39212217-1.42 0l-2 2c-.2884599.28609046-.3751619.71826679-.219371 1.09348151.155791.37521471.5231059.61888111.929371.61651849z"/><path id="Shape" d="m32 9c.54 0 .57-.15 2.71-2.29.2536586-.25365856.3527236-.62337399.2598781-.96987806-.0928455-.34650406-.363496-.61715454-.71-.71000002-.3465041-.09284548-.7162195.00621949-.9698781.25987808l-2 2c-.2884599.28609046-.3751619.71826679-.219371 1.09348151.155791.37521471.5231059.61888111.929371.61651849z"/><path id="Shape" d="m16 10c.5522847 0 1-.44771525 1-1v-2c0-.55228475-.4477153-1-1-1s-1 .44771525-1 1v2c0 .55228475.4477153 1 1 1z"/><path id="Shape" d="m16.29 12.29c-.1893127.1877666-.2957983.4433625-.2957983.71s.1064856.5222334.2957983.71l2 2c.3921222.3921222 1.0278778.3921222 1.42 0s.3921222-1.0278778 0-1.42l-2-2c-.1877666-.1893127-.4433625-.2957983-.71-.2957983s-.5222334.1064856-.71.2957983z"/><path id="Shape" d="m41.29 15.71c.3921222.3921221 1.0278778.3921221 1.42 0 .3921221-.3921222.3921221-1.0278778 0-1.42l-2-2c-.3921222-.3921221-1.0278778-.3921221-1.42 0-.3921221.3921222-.3921221 1.0278778 0 1.42z"/><path id="Shape" d="m25.29 13.29c-.1893127.1877666-.2957983.4433625-.2957983.71s.1064856.5222334.2957983.71l2 2c.3921222.3921222 1.0278778.3921222 1.42 0s.3921222-1.0278778 0-1.42l-2-2c-.1877666-.1893127-.4433625-.2957983-.71-.2957983s-.5222334.1064856-.71.2957983z"/><path id="Shape" d="m32.29 11.29c-.1893127.1877666-.2957983.4433625-.2957983.71s.1064856.5222334.2957983.71l2 2c.3921222.3921221 1.0278778.3921221 1.42 0 .3921221-.3921222.3921221-1.0278778 0-1.42l-2-2c-.1877666-.1893127-.4433625-.2957983-.71-.2957983s-.5222334.1064856-.71.2957983z"/><path id="Shape" d="m51.94 31.72c.2088529-1.4352386-.2157917-2.8904436-1.1637725-3.9881056s-2.3258744-1.7296065-3.7762275-1.7318944v-5h1c1.1045695 0 2-.8954305 2-2 0-10.49341025-8.5065898-19-19-19h-10c-10.4934102 0-19 8.50658975-19 19 0 1.1045695.8954305 2 2 2h1v5c-2.36538641.0027833-4.40519711 1.6627178-4.88859321 3.9781851-.48339609 2.3154673.72189612 4.6528764 2.88859321 5.6018149v2.42c0 6.0751322 4.92486775 11 11 11h16.56c1.8152606 6.616289 7.8881321 11.1576797 14.7477081 11.0285727 6.859576-.1291071 12.757256-4.8958007 14.322263-11.5757112 1.5650071-6.6799105-1.6016006-13.5702366-7.6899711-16.7328615zm-30.94-29.72h10c9.3888407 0 17 7.61115925 17 17h-44c0-9.38884075 7.6111593-17 17-17zm-14 19h38v5h-38zm-5 10c0-1.6568542 1.34314575-3 3-3h42c1.6073858-.0015098 2.9303473 1.2641233 3 2.87-5.9597635-2.1206519-12.6091149-.2580323-16.6 4.65-.7-.45-.73-.88-1.39-.88-.2872272.0003637-.5604302.1242157-.75.34-.5694991.6457513-1.3889983 1.0156865-2.25 1.0156865s-1.6805009-.3699352-2.25-1.0156865c-.189833-.2152504-.4629994-.3385622-.75-.3385622s-.560167.1233118-.75.3385622c-.5694991.6457513-1.3889983 1.0156865-2.25 1.0156865s-1.6805009-.3699352-2.25-1.0156865c-.189833-.2152504-.4629994-.3385622-.75-.3385622s-.560167.1233118-.75.3385622c-.5694991.6457513-1.3889983 1.0156865-2.25 1.0156865s-1.6805009-.3699352-2.25-1.0156865c-.189833-.2152504-.4629994-.3385622-.75-.3385622s-.560167.1233118-.75.3385622c-.7062439.7927502-1.7789012 1.1531676-2.8205454.9477151-1.04164415-.2054525-1.89711487-.9461713-2.2494546-1.9477151-.10155433-.2950356-.33500356-.5257589-.63121159-.623841-.29620802-.0980821-.62122182-.0522804-.87878841.123841-.91866538.6209528-2.10493246.6845358-3.08470902.165338-.97977657-.5191978-1.59326755-1.5364988-1.59529098-2.645338zm12 16c-4.97056275 0-9-4.0294373-9-9v-2c.60750752-.0014624 1.21002201-.1097796 1.78-.32.74698839 1.1761908 1.95088697 1.9873357 3.3215157 2.2379216 1.3706288.2505859 2.7836522-.082119 3.8984843-.9179216 1.7914961 1.2915227 4.2085039 1.2915227 6 0 1.7914961 1.2915227 4.2085039 1.2915227 6 0 1.7777778 1.3333333 4.2222222 1.3333333 6 0l.24.15c-1.8296988 2.9368542-2.5694384 6.4231868-2.09 9.85zm31 11c-7.1797017 0-13-5.8202983-13-13s5.8202983-13 13-13 13 5.8202983 13 13c0 3.4478144-1.3696389 6.7544152-3.8076118 9.1923882-2.437973 2.4379729-5.7445738 3.8076118-9.1923882 3.8076118z"/><path id="Shape" d="m52.44 39c-.21 0-4.82 1.22-7.38 3.23-2.58-1.95-6.93-3.08-7.52-3.23-.2730114-.0679073-.5619989-.0176733-.7960797.1383805-.2340807.1560539-.3915996.4034908-.4339203.6816195-.11.72-1 7.12.86 9.93s5.63 4.25 8.32 2.45c.09-.06.17-.15.26-.22.029382.0086113.060618.0086113.09 0 0 0 0-.06.08-.08.905212-.7691765 1.5135366-1.8302077 1.72-3l2.08-2.14c.3865993-.397645.377645-1.0334007-.02-1.42s-1.0334007-.377645-1.42.02l-.75.78c-.214694-.851203-.5731805-1.6594887-1.06-2.39 1.659334-1.0698886 3.4693567-1.8855786 5.37-2.42.26 2.44.29 5.84-.62 7.21-.552568.8096012-1.3219221 1.4472641-2.22 1.84-.4274182.1947244-.6617191.6606653-.5631423 1.1198892.0985769.4592238.5034623.7879572.9731423.7901108 1.4421226-.4472616 2.6675657-1.4126544 3.44-2.71 1.82-2.77.89-9 .78-9.74-.0385631-.2730727-.1881869-.5180973-.4134921-.6771362-.2253051-.1590389-.5062878-.2179719-.7765079-.1628638zm-13.61 9.67c-1-1.53-.9-5.2-.68-7.4 2.43.73 5.69 2.09 6.64 3.5 1.049561 1.3857066 1.2385736 3.2411154.49 4.81l-2.49-3.19c-.2087685-.3078935-.57119-.4744549-.9408003-.4323723-.3696102.0420825-.6853128.2858528-.8195237.6327968-.134211.3469439-.0647453.7397118.180324 1.0195755l2.52 3.24c-1.6.53-3.66-.34-4.9-2.18z"/></g></g></svg>