<svg height="480pt" viewBox="-56 0 480 480.00007" width="480pt" xmlns="http://www.w3.org/2000/svg"><path d="m344 472h-128l-16-176h160zm0 0" fill="#e8e8e8"/><path d="m136 136c-7.808594-18.839844-16-80-16-80h-64s-8.191406 61.160156-16 80c-5.519531 13.328125-32 33.601562-32 48v256c0 17.671875 14.328125 32 32 32h96c17.671875 0 32-14.328125 32-32v-256c0-14.398438-26.480469-34.671875-32-48zm0 0" fill="#e8e8e8"/><path d="m202.910156 328 13.089844 144h128l13.089844-144zm0 0" fill="#50b3c9"/><path d="m168 440v-256c0-14.398438-26.480469-34.671875-32-48-1.964844-5.210938-3.554688-10.558594-4.753906-16h-86.492188c-1.199218 5.441406-2.789062 10.789062-4.753906 16-5.519531 13.328125-32 33.601562-32 48v256c0 17.671875 14.328125 32 32 32h96c17.671875 0 32-14.328125 32-32zm0 0" fill="#50b3c9"/><path d="m40 8h96v48h-96zm0 0" fill="#4481c3"/><path d="m64 8h16v24h-16zm0 0" fill="#50b3c9"/><path d="m96 8h16v24h-16zm0 0" fill="#50b3c9"/><path d="m88 224c-30.003906-.941406-59.027344 10.75-80 32.230469v79.539062c20.972656 21.480469 49.996094 33.171875 80 32.230469 30.003906.941406 59.027344-10.75 80-32.230469v-79.539062c-20.972656-21.480469-49.996094-33.171875-80-32.230469zm0 0" fill="#4481c3"/><path d="m152 296c0-22.089844-28.652344-40-64-40s-64 17.910156-64 40 28.652344 40 64 40 64-17.910156 64-40zm0 0" fill="#e8e8e8"/><g fill="#fff"><path d="m88 144h16v16h-16zm0 0"/><path d="m112 168h16v16h-16zm0 0"/><path d="m64 184h16v16h-16zm0 0"/><path d="m120 392h16v16h-16zm0 0"/><path d="m80 400h16v16h-16zm0 0"/><path d="m104 424h16v16h-16zm0 0"/><path d="m304 352h16v16h-16zm0 0"/><path d="m264 360h16v16h-16zm0 0"/><path d="m288 384h16v16h-16zm0 0"/><path d="m240 392h16v16h-16zm0 0"/><path d="m304 416h16v16h-16zm0 0"/><path d="m40 392h16v16h-16zm0 0"/></g><path d="m264 248c0 8.835938-7.164062 16-16 16s-16-7.164062-16-16 7.164062-16 16-16 16 7.164062 16 16zm0 0" fill="#ffd782"/><path d="m320 200c0 8.835938-7.164062 16-16 16s-16-7.164062-16-16 7.164062-16 16-16 16 7.164062 16 16zm0 0" fill="#ffd782"/><path d="m296 248h16v16h-16zm0 0" fill="#f98c96"/><path d="m224 184h16v16h-16zm0 0" fill="#f98c96"/><path d="m360 288h-160c-2.253906-.007812-4.40625.933594-5.925781 2.589844-1.523438 1.660156-2.277344 3.886718-2.074219 6.128906l16 176c.375 4.136719 3.847656 7.296875 8 7.28125h128c4.152344.015625 7.625-3.144531 8-7.28125l16-176c.203125-2.242188-.550781-4.46875-2.074219-6.128906-1.519531-1.65625-3.671875-2.597656-5.925781-2.589844zm-23.304688 176h-113.390624l-11.632813-128h136.65625zm13.089844-144h-139.570312l-1.414063-16h142.480469zm0 0"/><path d="m88 344c40.375 0 72-21.089844 72-48s-31.625-48-72-48-72 21.089844-72 48 31.625 48 72 48zm0-80c30.351562 0 56 14.65625 56 32s-25.648438 32-56 32-56-14.65625-56-32 25.648438-32 56-32zm0 0"/><path d="m136 480c22.082031-.027344 39.972656-17.917969 40-40v-256c0-11.503906-10.097656-23.046875-19.847656-34.222656-4.941406-5.058594-9.230469-10.714844-12.761719-16.839844-6.5625-22.5625-11.308594-45.617188-14.183594-68.9375h6.792969c4.417969 0 8-3.582031 8-8v-48c0-4.417969-3.582031-8-8-8h-96c-4.417969 0-8 3.582031-8 8v48c0 4.417969 3.582031 8 8 8h6.792969c-2.875 23.320312-7.621094 46.375-14.183594 68.9375-3.542969 6.128906-7.84375 11.785156-12.800781 16.839844-9.710938 11.175781-19.808594 22.71875-19.808594 34.222656v256c.0273438 22.082031 17.917969 39.972656 40 40zm-88-464h16v16h16v-16h16v16h16v-16h16v32h-80zm73.28125 96h-66.5625c3.671875-17.601562 6.738281-37.601562 8.242188-48h50.078124c1.503907 10.398438 4.5625 30.398438 8.242188 48zm-105.28125 72c0-5.496094 9.191406-16 15.902344-23.695312 6.183594-6.277344 11.402344-13.4375 15.488281-21.242188 1.417969-3.609375 2.609375-7.304688 3.578125-11.0625h74.0625c.96875 3.757812 2.160156 7.453125 3.578125 11.0625 4.085937 7.804688 9.304687 14.964844 15.488281 21.242188 6.710938 7.695312 15.902344 18.199218 15.902344 23.695312v54.398438c-21.03125-14.878907-46.238281-22.722657-72-22.398438-25.761719-.324219-50.96875 7.519531-72 22.398438zm0 112v-36.640625c19.417969-18.316406 45.320312-28.160156 72-27.359375 26.679688-.800781 52.582031 9.042969 72 27.359375v73.28125c-19.417969 18.316406-45.320312 28.160156-72 27.359375-26.679688.800781-52.582031-9.042969-72-27.359375zm0 144v-86.398438c21.03125 14.878907 46.238281 22.722657 72 22.398438 25.761719.324219 50.96875-7.519531 72-22.398438v86.398438c0 13.253906-10.746094 24-24 24h-96c-13.253906 0-24-10.746094-24-24zm0 0"/><path d="m88 144h16v16h-16zm0 0"/><path d="m112 168h16v16h-16zm0 0"/><path d="m64 184h16v16h-16zm0 0"/><path d="m120 392h16v16h-16zm0 0"/><path d="m80 400h16v16h-16zm0 0"/><path d="m104 424h16v16h-16zm0 0"/><path d="m304 352h16v16h-16zm0 0"/><path d="m264 360h16v16h-16zm0 0"/><path d="m288 384h16v16h-16zm0 0"/><path d="m240 392h16v16h-16zm0 0"/><path d="m304 416h16v16h-16zm0 0"/><path d="m40 392h16v16h-16zm0 0"/><path d="m248 272c13.253906 0 24-10.746094 24-24s-10.746094-24-24-24-24 10.746094-24 24 10.746094 24 24 24zm0-32c4.417969 0 8 3.582031 8 8s-3.582031 8-8 8-8-3.582031-8-8 3.582031-8 8-8zm0 0"/><path d="m328 200c0-13.253906-10.746094-24-24-24s-24 10.746094-24 24 10.746094 24 24 24 24-10.746094 24-24zm-24 8c-4.417969 0-8-3.582031-8-8s3.582031-8 8-8 8 3.582031 8 8-3.582031 8-8 8zm0 0"/><path d="m296 248h16v16h-16zm0 0"/><path d="m224 184h16v16h-16zm0 0"/></svg>